<svg width="40" height="60" viewBox="0 0 5 5" fill="none" xmlns="http://www.w3.org/2000/svg">
<path d="M2.5888 0.310547C2.88337 0.310547 3.16587 0.427565 3.37417 0.635858C3.58246 0.844152 3.69948 1.12666 3.69948 1.42123C3.69948 1.7158 3.58246 1.99831 3.37417 2.2066C3.16587 2.41489 2.88337 2.53191 2.5888 2.53191C2.29423 2.53191 2.01172 2.41489 1.80343 2.2066C1.59513 1.99831 1.47811 1.7158 1.47811 1.42123C1.47811 1.12666 1.59513 0.844152 1.80343 0.635858C2.01172 0.427565 2.29423 0.310547 2.5888 0.310547ZM2.5888 3.08725C3.8161 3.08725 4.81016 3.58428 4.81016 4.19794V4.75328H0.367432V4.19794C0.367432 3.58428 1.36149 3.08725 2.5888 3.08725Z" fill="black"/>
</svg>
